name Walk9.mot
datacolumns 19
datarows 27
range 1.37900000 1.40500000
endheader

                time	   L_ground_force_vx	   L_ground_force_vy	   L_ground_force_vz	   L_ground_force_px	   L_ground_force_py	   L_ground_force_pz	   R_ground_force_vx	   R_ground_force_vy	   R_ground_force_vz	   R_ground_force_px	   R_ground_force_py	   R_ground_force_pz	   L_ground_torque_x	   L_ground_torque_y	   L_ground_torque_z	   R_ground_torque_x	   R_ground_torque_y	   R_ground_torque_z	
          1.37900000	          0.00000000	          0.00000000	          0.00000000	          0.00000000	          0.00000000	          0.00000000	         15.38590773	        685.77628591	        -12.16116089	         -0.14842911	          0.00000000	          0.32246194	          0.00000000	          0.00000000	          0.00000000	          0.00000000	          3.05975118	          0.00000000	
          1.38000000	          0.00000000	          0.00000000	          0.00000000	          0.00000000	          0.00000000	          0.00000000	         15.85149633	        687.48207957	        -12.22474620	         -0.14799709	          0.00000000	          0.32241240	          0.00000000	          0.00000000	          0.00000000	          0.00000000	          3.03196762	          0.00000000	
          1.38100000	          0.00000000	          0.00000000	          0.00000000	          0.00000000	          0.00000000	          0.00000000	         16.29284588	        689.19278799	        -12.28261655	         -0.14754764	          0.00000000	          0.32230204	          0.00000000	          0.00000000	          0.00000000	          0.00000000	          3.00894958	          0.00000000	
          1.38200000	          0.00000000	          0.00000000	          0.00000000	          0.00000000	          0.00000000	          0.00000000	         16.71088003	        690.90177590	        -12.33560873	         -0.14710181	          0.00000000	          0.32217844	          0.00000000	          0.00000000	          0.00000000	          0.00000000	          2.98644314	          0.00000000	
          1.38300000	          0.00000000	          0.00000000	          0.00000000	          0.00000000	          0.00000000	          0.00000000	         17.11683780	        692.58703732	        -12.38717420	         -0.14666985	          0.00000000	          0.32208382	          0.00000000	          0.00000000	          0.00000000	          0.00000000	          2.96260275	          0.00000000	
          1.38400000	          0.00000000	          0.00000000	          0.00000000	          0.00000000	          0.00000000	          0.00000000	         17.52102568	        694.23330324	        -12.44628735	         -0.14625155	          0.00000000	          0.32200964	          0.00000000	          0.00000000	          0.00000000	          0.00000000	          2.94038106	          0.00000000	
          1.38500000	          0.00000000	          0.00000000	          0.00000000	          0.00000000	          0.00000000	          0.00000000	         17.93103538	        695.84989862	        -12.53325785	         -0.14585033	          0.00000000	          0.32193493	          0.00000000	          0.00000000	          0.00000000	          0.00000000	          2.92248950	          0.00000000	
          1.38600000	          0.00000000	          0.00000000	          0.00000000	          0.00000000	          0.00000000	          0.00000000	         18.35731347	        697.45845007	        -12.67603611	         -0.14547148	          0.00000000	          0.32187184	          0.00000000	          0.00000000	          0.00000000	          0.00000000	          2.90662007	          0.00000000	
          1.38700000	          0.00000000	          0.00000000	          0.00000000	          0.00000000	          0.00000000	          0.00000000	         18.80657199	        699.07864158	        -12.89779222	         -0.14511092	          0.00000000	          0.32183799	          0.00000000	          0.00000000	          0.00000000	          0.00000000	          2.88758554	          0.00000000	
          1.38800000	          0.00000000	          0.00000000	          0.00000000	          0.00000000	          0.00000000	          0.00000000	         19.26857915	        700.72166156	        -13.20404436	         -0.14475356	          0.00000000	          0.32183069	          0.00000000	          0.00000000	          0.00000000	          0.00000000	          2.86229618	          0.00000000	
          1.38900000	          0.00000000	          0.00000000	          0.00000000	          0.00000000	          0.00000000	          0.00000000	         19.72215217	        702.37798999	        -13.57939232	         -0.14438226	          0.00000000	          0.32184882	          0.00000000	          0.00000000	          0.00000000	          0.00000000	          2.83056258	          0.00000000	
          1.39000000	          0.00000000	          0.00000000	          0.00000000	          0.00000000	          0.00000000	          0.00000000	         20.15437460	        704.03087139	        -13.99989860	         -0.14399127	          0.00000000	          0.32188997	          0.00000000	          0.00000000	          0.00000000	          0.00000000	          2.79345575	          0.00000000	
          1.39100000	          0.00000000	          0.00000000	          0.00000000	          0.00000000	          0.00000000	          0.00000000	         20.56697157	        705.68811807	        -14.44614626	         -0.14359234	          0.00000000	          0.32192523	          0.00000000	          0.00000000	          0.00000000	          0.00000000	          2.75146690	          0.00000000	
          1.39200000	          0.00000000	          0.00000000	          0.00000000	          0.00000000	          0.00000000	          0.00000000	         20.97201242	        707.36877638	        -14.90569122	         -0.14320388	          0.00000000	          0.32191996	          0.00000000	          0.00000000	          0.00000000	          0.00000000	          2.70141012	          0.00000000	
          1.39300000	          0.00000000	          0.00000000	          0.00000000	          0.00000000	          0.00000000	          0.00000000	         21.38789544	        709.06624738	        -15.37484476	         -0.14283589	          0.00000000	          0.32187266	          0.00000000	          0.00000000	          0.00000000	          0.00000000	          2.63580396	          0.00000000	
          1.39400000	          0.00000000	          0.00000000	          0.00000000	          0.00000000	          0.00000000	          0.00000000	         21.83384039	        710.74963537	        -15.85285365	         -0.14248837	          0.00000000	          0.32180451	          0.00000000	          0.00000000	          0.00000000	          0.00000000	          2.54840415	          0.00000000	
          1.39500000	          0.00000000	          0.00000000	          0.00000000	          0.00000000	          0.00000000	          0.00000000	         22.32420983	        712.39129386	        -16.32246568	         -0.14215715	          0.00000000	          0.32171971	          0.00000000	          0.00000000	          0.00000000	          0.00000000	          2.44199501	          0.00000000	
          1.39600000	          0.00000000	          0.00000000	          0.00000000	          0.00000000	          0.00000000	          0.00000000	         22.86430380	        713.98175080	        -16.74698359	         -0.14183888	          0.00000000	          0.32160560	          0.00000000	          0.00000000	          0.00000000	          0.00000000	          2.33062546	          0.00000000	
          1.39700000	          0.00000000	          0.00000000	          0.00000000	          0.00000000	          0.00000000	          0.00000000	         23.44863931	        715.52162835	        -17.09383732	         -0.14153549	          0.00000000	          0.32146868	          0.00000000	          0.00000000	          0.00000000	          0.00000000	          2.23239165	          0.00000000	
          1.39800000	          0.00000000	          0.00000000	          0.00000000	          0.00000000	          0.00000000	          0.00000000	         24.06682498	        717.01385925	        -17.35228952	         -0.14124942	          0.00000000	          0.32134095	          0.00000000	          0.00000000	          0.00000000	          0.00000000	          2.15825484	          0.00000000	
          1.39900000	          0.00000000	          0.00000000	          0.00000000	          0.00000000	          0.00000000	          0.00000000	         24.71203973	        718.47159197	        -17.53017131	         -0.14097346	          0.00000000	          0.32125054	          0.00000000	          0.00000000	          0.00000000	          0.00000000	          2.10738207	          0.00000000	
          1.40000000	          0.00000000	          0.00000000	          0.00000000	          0.00000000	          0.00000000	          0.00000000	         25.38050644	        719.91878017	        -17.64259465	         -0.14069568	          0.00000000	          0.32120151	          0.00000000	          0.00000000	          0.00000000	          0.00000000	          2.07204224	          0.00000000	
          1.40100000	          0.00000000	          0.00000000	          0.00000000	          0.00000000	          0.00000000	          0.00000000	         26.06683689	        721.37498704	        -17.70615921	         -0.14041270	          0.00000000	          0.32117783	          0.00000000	          0.00000000	          0.00000000	          0.00000000	          2.04401727	          0.00000000	
          1.40200000	          0.00000000	          0.00000000	          0.00000000	          0.00000000	          0.00000000	          0.00000000	         26.76448500	        722.83546716	        -17.74053577	         -0.14012726	          0.00000000	          0.32116287	          0.00000000	          0.00000000	          0.00000000	          0.00000000	          2.01513358	          0.00000000	
          1.40300000	          0.00000000	          0.00000000	          0.00000000	          0.00000000	          0.00000000	          0.00000000	         27.46541858	        724.27794813	        -17.76269755	         -0.13984189	          0.00000000	          0.32115058	          0.00000000	          0.00000000	          0.00000000	          0.00000000	          1.97676722	          0.00000000	
          1.40400000	          0.00000000	          0.00000000	          0.00000000	          0.00000000	          0.00000000	          0.00000000	         28.15701932	        725.70767712	        -17.77397829	         -0.13956089	          0.00000000	          0.32113219	          0.00000000	          0.00000000	          0.00000000	          0.00000000	          1.92544612	          0.00000000	
          1.40500000	          0.00000000	          0.00000000	          0.00000000	          0.00000000	          0.00000000	          0.00000000	         28.82515490	        727.16050993	        -17.76322225	         -0.13928938	          0.00000000	          0.32109199	          0.00000000	          0.00000000	          0.00000000	          0.00000000	          1.86710407	          0.00000000	
